<?xml version="1.0" encoding="UTF-8"?>
<svg id="Layer_1" data-name="Layer 1" xmlns="http://www.w3.org/2000/svg" viewBox="0 0 720 720">
  <defs>
    <style>
      .cls-1 {
        fill: #fff;
      }
    </style>
  </defs>
  <path class="cls-1" d="M270.24,215.52c1.27.14.76-.03.97-.71,3.42-11.26,3.98-21.54.72-32.9-.41-1.43-1.28-2.79-1.59-4.17-.16-.72-.39-1.29.62-1.1,15.8,15.21,30.09,33.68,37.69,54.47,5.52,15.1,8.34,31.75,9.6,47.77.68-.01.94-1.36,1.18-1.94,3.02-7.38,4.08-15.81,3.64-23.76-.13-2.28-1.09-4.63-.74-6.94,11.66,16.16,22.3,33.28,31.69,50.87,9.59,17.96,16.78,35.91,22.24,55.58l-14.87,17.33-1.39-.16-92.24-127.12c-21.53-29.32-48.79-56.16-77.45-78.55-10.72-8.37-28.65-21.69-40.98-26.7-.75-.31-1.15-.48-1,.51,14.11,11.43,28.32,22.82,41.76,35.04,21.65,19.67,42.74,39.87,61.42,62.42,36.76,44.4,69.34,92.61,104.87,138.01l.14,1.8-17.86,18.86-1.33.37c-12.29-5.18-24.92-9.83-36.04-17.3-6.3-4.23-12.97-9.44-19-14.12-8.71-6.77-17.55-13.65-25.01-21.79,14.62,2.01,29.58,3.46,44.34,1.86.49-.05,2.25-.19,2.21-.9-12.61-1.12-25.67-4.5-37.28-9.52-24.45-10.58-43.29-31.87-59.67-52.17-.79-1.81,4.01,1.09,4.47,1.29,13.92,6.01,26.9,9.58,42.32,8.55l4.08-.95c-16.44-2.85-33.38-9.11-47.48-18.05-19.17-12.16-36.38-34.2-48.53-53.23-2.19-3.43-4.66-6.97-6-10.8,14.71,6.52,30.86,10.11,46.99,8.09.58-.07,2.62-.21,2.7-.9-30.4-6.76-58.33-22.95-76.71-48.33-18.58-25.67-30.36-58.02-38.49-88.47.35-.38,1.92.94,2.35,1.25,21.07,14.96,38.73,28.69,62.76,39.48,29.83,13.41,75.5,18.7,95.4,46.2,10.49,14.5,16.35,33.36,19.49,50.83h.01Z"/>
  <path class="cls-1" d="M635.04,115.2l-10.95,28.65c-9.55,19.26-21.68,37.05-34.66,54.14-75.72,83.97-151.73,167.66-227.5,251.54l-1.25,4.09,6.99,7.89c-1.75,4.3-5.08,8.3-9.1,10.62-.5.25-.95.17-1.46,0-.87-.27-7.13-5.49-8.38-6.54-12.85-10.77-26.31-23.32-38.66-34.78-5.05-4.69-9.98-9.55-14.9-14.38-2.43-3.73,5.57-12.03,8.84-11.67,2.94.32,16.31,15.49,20.46,17.16l-.97-6.93c.24-1.55,3.79-4.19,4.81-5.31,42.37-46.62,85.78-92.49,128.87-138.49,26.03-27.78,51.65-56.31,78.24-83.52,25.89-26.49,57.49-51.13,90.16-68.72,1.41-.76,8.42-4.73,9.44-3.76h.02ZM569.28,194.4c-.6-.65-7.03,4.14-7.9,4.81-15.85,12.08-32.65,30.53-46.58,45.1-38.75,40.54-80.89,86.19-111.97,132.83-.44.66-1.18,1.19-1.06,2.06.88.11,1.51-.49,2.15-.97,2.39-1.75,5.57-4.86,7.93-6.95,40.6-35.78,78.67-76.38,114-117.36,12.87-14.93,29.31-33.23,39.31-49.97.8-1.34,5.12-8.47,4.12-9.56h0ZM401.52,379.68v.48c.31-.16.31-.32,0-.48Z"/>
  <path class="cls-1" d="M223.68,540l1.47,3.08,27.74,24.43c-6.39,7.15-12.8,14.43-19.37,21.46-6.7,7.15-13.54,14.36-20.39,21.37-2.17,2.22-9.89,10.67-11.83,11.69-3.02,1.59-6.1.29-8.93-1.03-13.75-6.42-30.46-23.62-32.97-39.03-.94-5.75-.3-8.41,3.62-12.62,5.37-5.77,10.06-4.01,17.08-5.96,16.12-4.47,24.68-14.98,34.17-27.75,15.32-20.61,32.25-41.15,50.74-59.18,13.8-13.46,31.82-25.07,39.32-43.49l42.21,32.45-88.8,96.92-1.07.16-32.99-22.5h0ZM303.23,460.91c-6.04,1.23-6.04,11.13.48,12.26,9.81,1.7,9.67-14.33-.48-12.26ZM249.95,519.95c-6.42.56-7.49,10.58-.96,11.78,9.89,1.81,9.29-12.5.96-11.78Z"/>
  <path class="cls-1" d="M558.55,637.14l-173.99-206.75c.1-.52,6.14-7.54,6.86-8.02.49-.33,1.06-.73,1.64-.39,12.32,16.17,24.57,32.48,37.51,48.16,4.42,5.36,8.87,11.09,13.66,16.1.96,1,2.15,2.51,3.6,2.64l-51.96-70.47-.14-1.28,8.66-9.6c54.96,74.62,107,151.5,155.27,230.64l-1.12-1.02h0Z"/>
  <path class="cls-1" d="M270,175.68c.31.16.31.32,0,.48v-.48Z"/>
</svg>