<svg width="55" height="55" viewBox="0 0 55 55" fill="none" xmlns="http://www.w3.org/2000/svg">
<path fill-rule="evenodd" clip-rule="evenodd" d="M50.0499 13.8793C50.1499 13.2727 50.0853 12.6505 49.8631 12.0773C49.6408 11.5042 49.2688 11.0011 48.786 10.6206C48.3032 10.24 47.7272 9.99594 47.118 9.91371C46.5087 9.83148 45.8886 9.91412 45.3222 10.153L6.1347 26.653C3.40304 27.8035 3.26324 31.7543 6.1347 32.946C8.9784 34.1308 11.8631 35.2147 14.7835 36.1955C17.4601 37.0801 20.3797 37.8983 22.7195 38.1297C23.3589 38.8951 24.1632 39.633 24.9837 40.3068C26.2372 41.338 27.7451 42.3991 29.3035 43.4166C32.4247 45.4562 35.8874 47.4064 38.2203 48.676C41.0093 50.1885 44.3482 48.4468 44.8478 45.4058L50.0499 13.8793ZM10.5278 29.7766L45.187 15.1832L40.3332 44.6082C38.0439 43.3639 34.7462 41.5007 31.8082 39.5803C30.4542 38.7109 29.1469 37.7708 27.8918 36.7639C27.5563 36.4898 27.2307 36.2039 26.9155 35.9068L35.9928 26.8318C36.4228 26.4021 36.6645 25.8192 36.6648 25.2112C36.665 24.6033 36.4237 24.0202 35.994 23.5902C35.5643 23.1602 34.9813 22.9185 34.3734 22.9183C33.7655 22.9181 33.1824 23.1594 32.7524 23.5891L22.8135 33.528C21.1314 33.3126 18.7893 32.6893 16.218 31.8414C14.3038 31.2036 12.4072 30.5143 10.5301 29.7743L10.5278 29.7766Z" fill="#D9D9D9"/>
</svg>
